<svg xmlns="http://www.w3.org/2000/svg" xmlns:xlink="http://www.w3.org/1999/xlink" width="152" zoomAndPan="magnify" viewBox="0 0 114 115.499997" height="154" preserveAspectRatio="xMidYMid meet" version="1.0"><defs><clipPath id="d2cafcbdcc"><path d="M 0.246094 0.675781 L 113.265625 0.675781 L 113.265625 113.695312 L 0.246094 113.695312 Z M 0.246094 0.675781 " clip-rule="nonzero"/></clipPath><clipPath id="6719aa60d3"><path d="M 56.757812 0.675781 C 25.546875 0.675781 0.246094 25.976562 0.246094 57.1875 C 0.246094 88.394531 25.546875 113.695312 56.757812 113.695312 C 87.964844 113.695312 113.265625 88.394531 113.265625 57.1875 C 113.265625 25.976562 87.964844 0.675781 56.757812 0.675781 Z M 56.757812 0.675781 " clip-rule="nonzero"/></clipPath><clipPath id="3876f3f124"><path d="M 0.246094 0.675781 L 113.085938 0.675781 L 113.085938 113.515625 L 0.246094 113.515625 Z M 0.246094 0.675781 " clip-rule="nonzero"/></clipPath><clipPath id="064711b785"><path d="M 56.75 0.675781 C 25.542969 0.675781 0.246094 25.972656 0.246094 57.179688 C 0.246094 88.386719 25.542969 113.683594 56.75 113.683594 C 87.957031 113.683594 113.253906 88.386719 113.253906 57.179688 C 113.253906 25.972656 87.957031 0.675781 56.75 0.675781 Z M 56.75 0.675781 " clip-rule="nonzero"/></clipPath></defs><g clip-path="url(#d2cafcbdcc)"><g clip-path="url(#6719aa60d3)"><path fill="#ffffff" d="M 0.246094 0.675781 L 113.265625 0.675781 L 113.265625 113.695312 L 0.246094 113.695312 Z M 0.246094 0.675781 " fill-opacity="1" fill-rule="nonzero"/></g></g><g clip-path="url(#3876f3f124)"><g clip-path="url(#064711b785)"><path stroke-linecap="butt" transform="matrix(0.989818, 0, 0, 0.989818, 0.245691, 0.675981)" fill="none" stroke-linejoin="miter" d="M 57.085578 -0.000201799 C 25.557515 -0.000201799 0.000406514 25.556906 0.000406514 57.084969 C 0.000406514 88.613032 25.557515 114.17014 57.085578 114.17014 C 88.61364 114.17014 114.170748 88.613032 114.170748 57.084969 C 114.170748 25.556906 88.61364 -0.000201799 57.085578 -0.000201799 Z M 57.085578 -0.000201799 " stroke="#000000" stroke-width="1.508899" stroke-opacity="1" stroke-miterlimit="4"/></g></g><path fill="#231f20" d="M 22.410156 31.53125 L 43.789062 31.53125 C 44.375 31.53125 44.917969 31.617188 45.40625 31.792969 C 45.898438 31.96875 46.292969 32.21875 46.601562 32.542969 C 46.90625 32.867188 47.109375 33.269531 47.207031 33.738281 C 47.304688 34.203125 47.265625 34.734375 47.089844 35.320312 L 44.636719 43.917969 C 44.484375 44.441406 44.234375 44.917969 43.886719 45.339844 C 43.539062 45.765625 43.132812 46.136719 42.679688 46.449219 C 42.222656 46.769531 41.722656 47.027344 41.191406 47.234375 C 40.65625 47.441406 40.128906 47.589844 39.605469 47.675781 L 43.296875 53.332031 L 35.617188 53.332031 L 31.695312 47.707031 L 27.316406 47.707031 L 25.714844 53.332031 L 18.949219 53.332031 L 23.980469 35.746094 L 22.410156 31.527344 Z M 29.015625 41.828125 L 38.460938 41.828125 L 39.734375 37.417969 L 30.289062 37.417969 Z M 29.015625 41.828125 " fill-opacity="1" fill-rule="nonzero"/><path fill="#231f20" d="M 50.882812 35.75 L 49.3125 31.53125 L 72.652344 31.53125 L 71.964844 33.917969 C 71.855469 34.285156 71.714844 34.675781 71.539062 35.074219 C 71.363281 35.480469 71.160156 35.851562 70.933594 36.203125 C 70.703125 36.550781 70.441406 36.839844 70.148438 37.070312 C 69.851562 37.304688 69.542969 37.417969 69.214844 37.417969 L 57.1875 37.417969 L 56.566406 39.507812 L 68.367188 39.507812 L 66.699219 45.390625 L 54.898438 45.390625 L 54.3125 47.453125 L 68.105469 47.453125 L 66.402344 53.339844 L 45.839844 53.339844 L 50.875 35.753906 Z M 50.882812 35.75 " fill-opacity="1" fill-rule="nonzero"/><path fill="#231f20" d="M 74.777344 31.53125 L 96.152344 31.53125 C 96.742188 31.53125 97.28125 31.617188 97.773438 31.792969 C 98.261719 31.96875 98.660156 32.21875 98.964844 32.542969 C 99.273438 32.867188 99.472656 33.269531 99.570312 33.738281 C 99.667969 34.203125 99.632812 34.734375 99.457031 35.320312 L 97.003906 43.917969 C 96.847656 44.441406 96.597656 44.917969 96.25 45.339844 C 95.902344 45.765625 95.5 46.136719 95.042969 46.449219 C 94.585938 46.769531 94.089844 47.027344 93.554688 47.234375 C 93.019531 47.441406 92.492188 47.589844 91.96875 47.675781 L 95.664062 53.332031 L 87.984375 53.332031 L 84.0625 47.707031 L 79.683594 47.707031 L 78.082031 53.332031 L 71.3125 53.332031 L 76.347656 35.746094 L 74.777344 31.527344 Z M 81.378906 41.828125 L 90.824219 41.828125 L 92.101562 37.417969 L 82.65625 37.417969 Z M 81.378906 41.828125 " fill-opacity="1" fill-rule="nonzero"/><path fill="#231f20" d="M 18.734375 54.96875 L 40.117188 54.96875 C 40.703125 54.96875 41.246094 55.054688 41.734375 55.230469 C 42.226562 55.40625 42.621094 55.65625 42.929688 55.980469 C 43.234375 56.308594 43.433594 56.707031 43.535156 57.175781 C 43.632812 57.640625 43.59375 58.171875 43.417969 58.761719 L 39.332031 72.980469 C 39.15625 73.566406 38.890625 74.097656 38.53125 74.566406 C 38.171875 75.035156 37.746094 75.433594 37.257812 75.757812 C 36.765625 76.089844 36.226562 76.335938 35.636719 76.511719 C 35.050781 76.6875 34.457031 76.773438 33.871094 76.773438 L 15.269531 76.773438 L 20.300781 59.183594 L 18.730469 54.964844 Z M 36.0625 60.855469 L 26.613281 60.855469 L 23.738281 70.890625 L 33.1875 70.890625 Z M 36.0625 60.855469 " fill-opacity="1" fill-rule="nonzero"/><path fill="#231f20" d="M 52.898438 59.1875 L 51.328125 54.96875 L 65.089844 54.96875 L 68.328125 76.773438 L 60.84375 76.773438 L 60.417969 73.699219 L 49.890625 73.699219 L 47.734375 76.773438 L 37.433594 80.695312 L 52.898438 59.183594 Z M 54.105469 67.78125 L 59.597656 67.78125 L 58.75 61.308594 Z M 54.105469 67.78125 " fill-opacity="1" fill-rule="nonzero"/><path fill="#231f20" d="M 97.878906 58.761719 L 93.789062 72.980469 C 93.613281 73.566406 93.347656 74.097656 92.992188 74.566406 C 92.632812 75.035156 92.207031 75.433594 91.714844 75.757812 C 91.226562 76.089844 90.6875 76.335938 90.097656 76.511719 C 89.503906 76.6875 88.917969 76.773438 88.332031 76.773438 L 74.109375 76.773438 C 73.523438 76.773438 72.988281 76.6875 72.511719 76.511719 C 72.03125 76.335938 71.640625 76.085938 71.332031 75.757812 C 71.027344 75.433594 70.820312 75.035156 70.710938 74.566406 C 70.601562 74.097656 70.636719 73.566406 70.808594 72.980469 L 74.894531 58.761719 C 75.070312 58.171875 75.335938 57.640625 75.695312 57.175781 C 76.054688 56.707031 76.480469 56.308594 76.972656 55.980469 C 77.460938 55.65625 78 55.40625 78.589844 55.230469 C 79.175781 55.054688 79.769531 54.96875 80.355469 54.96875 L 94.574219 54.96875 C 95.164062 54.96875 95.707031 55.054688 96.195312 55.230469 C 96.683594 55.40625 97.082031 55.65625 97.386719 55.980469 C 97.695312 56.308594 97.894531 56.707031 97.992188 57.175781 C 98.089844 57.640625 98.054688 58.171875 97.878906 58.761719 Z M 87.648438 70.890625 L 90.523438 60.855469 L 81.074219 60.855469 L 78.199219 70.890625 Z M 87.648438 70.890625 " fill-opacity="1" fill-rule="nonzero"/><path stroke-linecap="butt" transform="matrix(0.373931, 0, 0, 0.373931, -10.779217, -10.346086)" fill="none" stroke-linejoin="miter" d="M 85.383787 108.043359 L 142.546722 108.043359 C 144.124135 108.043359 145.565744 108.27318 146.881996 108.74327 C 148.187802 109.21336 149.253339 109.881932 150.068161 110.748987 C 150.89343 111.616042 151.426199 112.692026 151.68736 113.935152 C 151.948521 115.188725 151.854503 116.609442 151.384413 118.176408 L 144.824047 141.169029 C 144.406189 142.568852 143.737617 143.843318 142.807884 144.971534 C 141.87815 146.110196 140.802166 147.102608 139.579933 147.938324 C 138.357699 148.794932 137.031001 149.484397 135.599838 150.038059 C 134.168675 150.59172 132.758405 150.988685 131.358582 151.218507 L 141.240917 166.344956 L 120.70321 166.344956 L 110.214982 151.302078 L 98.504519 151.302078 L 94.221478 166.344956 L 76.117792 166.344956 L 89.583257 119.31507 L 85.383787 108.032912 Z M 103.038275 135.580182 L 128.297774 135.580182 L 131.713761 123.775701 L 106.454262 123.775701 Z M 103.038275 135.580182 " stroke="#bcbec0" stroke-width="0.67" stroke-opacity="1" stroke-miterlimit="10"/><path stroke-linecap="butt" transform="matrix(0.373931, 0, 0, 0.373931, -10.779217, -10.346086)" fill="none" stroke-linejoin="miter" d="M 161.527909 119.31507 L 157.328439 108.043359 L 219.745935 108.043359 L 217.907361 114.415689 C 217.614861 115.408101 217.238789 116.452745 216.768699 117.518282 C 216.298609 118.604712 215.755394 119.597124 215.1495 120.537304 C 214.543607 121.467038 213.843695 122.240074 213.049765 122.856415 C 212.255836 123.483201 211.430567 123.775701 210.563512 123.775701 L 178.388468 123.775701 L 176.727484 129.374995 L 208.286188 129.374995 L 203.825556 145.107338 L 172.266852 145.107338 L 170.699886 150.62306 L 207.586276 150.62306 L 203.042073 166.355403 L 148.051998 166.355403 L 161.507016 119.325517 Z M 161.527909 119.31507 " stroke="#bcbec0" stroke-width="0.67" stroke-opacity="1" stroke-miterlimit="10"/><path stroke-linecap="butt" transform="matrix(0.373931, 0, 0, 0.373931, -10.779217, -10.346086)" fill="none" stroke-linejoin="miter" d="M 225.4288 108.043359 L 282.602182 108.043359 C 284.169149 108.043359 285.621204 108.27318 286.92701 108.74327 C 288.243261 109.21336 289.298352 109.881932 290.123621 110.748987 C 290.938444 111.616042 291.481659 112.692026 291.74282 113.935152 C 292.003981 115.188725 291.899516 116.609442 291.429426 118.176408 L 284.86906 141.169029 C 284.461649 142.568852 283.793077 143.843318 282.863343 144.971534 C 281.93361 146.110196 280.84718 147.102608 279.624946 147.938324 C 278.413159 148.794932 277.076014 149.484397 275.644851 150.038059 C 274.224135 150.59172 272.813865 150.988685 271.414042 151.218507 L 281.28593 166.344956 L 260.748224 166.344956 L 250.259995 151.302078 L 238.549533 151.302078 L 234.266491 166.344956 L 216.173252 166.344956 L 229.62827 119.31507 L 225.4288 108.032912 Z M 243.093735 135.580182 L 268.353234 135.580182 L 271.758774 123.775701 L 246.499276 123.775701 Z M 243.093735 135.580182 " stroke="#bcbec0" stroke-width="0.67" stroke-opacity="1" stroke-miterlimit="10"/><path stroke-linecap="butt" transform="matrix(0.373931, 0, 0, 0.373931, -10.779217, -10.346086)" fill="none" stroke-linejoin="miter" d="M 75.564131 170.722016 L 132.737513 170.722016 C 134.314925 170.722016 135.756535 170.951838 137.072786 171.421927 C 138.378592 171.892017 139.444129 172.56059 140.258951 173.427645 C 141.08422 174.305146 141.606543 175.370683 141.87815 176.624256 C 142.139311 177.867383 142.034847 179.288099 141.575203 180.855065 L 130.637778 218.890564 C 130.167688 220.45753 129.45733 221.878247 128.496257 223.13182 C 127.535184 224.374946 126.396522 225.45093 125.090716 226.317985 C 123.784911 227.195486 122.343302 227.864058 120.755443 228.334148 C 119.188476 228.804238 117.611063 229.03406 116.044097 229.03406 L 66.287689 229.03406 L 79.753154 181.993728 L 75.553684 170.711569 Z M 121.904551 186.464805 L 96.634606 186.464805 L 88.935578 213.301717 L 114.205523 213.301717 Z M 121.904551 186.464805 " stroke="#bcbec0" stroke-width="0.67" stroke-opacity="1" stroke-miterlimit="10"/><path stroke-linecap="butt" transform="matrix(0.373931, 0, 0, 0.373931, -10.779217, -10.346086)" fill="none" stroke-linejoin="miter" d="M 166.907827 182.004174 L 162.708357 170.722016 L 199.521622 170.722016 L 208.181723 229.03406 L 188.155892 229.03406 L 187.01723 220.812709 L 158.874513 220.812709 L 153.09763 229.03406 L 125.560806 239.522289 L 166.907827 181.993728 Z M 170.135778 204.986348 L 184.833923 204.986348 L 182.556599 187.676593 Z M 170.135778 204.986348 " stroke="#bcbec0" stroke-width="0.67" stroke-opacity="1" stroke-miterlimit="10"/><path stroke-linecap="butt" transform="matrix(0.373931, 0, 0, 0.373931, -10.779217, -10.346086)" fill="none" stroke-linejoin="miter" d="M 287.209064 180.855065 L 276.282084 218.890564 C 275.811994 220.45753 275.101636 221.878247 274.140563 223.13182 C 273.179491 224.374946 272.040828 225.45093 270.735023 226.317985 C 269.418771 227.195486 267.977162 227.864058 266.399749 228.334148 C 264.822336 228.804238 263.244924 229.03406 261.677957 229.03406 L 223.652905 229.03406 C 222.075492 229.03406 220.654776 228.804238 219.369863 228.334148 C 218.084951 227.864058 217.040307 227.18504 216.215038 226.317985 C 215.400215 225.45093 214.846554 224.374946 214.5645 223.13182 C 214.271999 221.878247 214.355571 220.45753 214.815214 218.890564 L 225.75264 180.855065 C 226.22273 179.288099 226.933088 177.867383 227.894161 176.624256 C 228.844787 175.370683 229.993896 174.305146 231.299701 173.427645 C 232.605507 172.56059 234.047116 171.892017 235.634975 171.421927 C 237.201941 170.951838 238.779354 170.722016 240.346321 170.722016 L 278.381819 170.722016 C 279.948786 170.722016 281.400841 170.951838 282.706647 171.421927 C 284.022898 171.892017 285.077989 172.56059 285.903258 173.427645 C 286.718081 174.305146 287.261296 175.370683 287.522457 176.624256 C 287.783618 177.867383 287.679153 179.288099 287.209064 180.855065 Z M 259.84983 213.301717 L 267.538412 186.464805 L 242.268466 186.464805 L 234.579884 213.301717 Z M 259.84983 213.301717 " stroke="#bcbec0" stroke-width="0.67" stroke-opacity="1" stroke-miterlimit="10"/></svg>